<svg xmlns="http://www.w3.org/2000/svg" width="3460" height="1024" viewBox="0 0 3460 1024">
  <defs>
    <style>
      .cls-1, .cls-2, .cls-3 {
        fill: #4815e7;
      }

      .cls-1 {
        fill-rule: evenodd;
      }

      .cls-3 {
        font-size: 400px;
        text-anchor: middle;
        font-family: Montserrat;
        font-weight: 800;
      }
    </style>
  </defs>
  <g id="Artboard_1" data-name="Artboard 1">
    <path class="cls-1" d="M1284,525V630s5.08,143.327,167,174h387s109.91-10.653,153-117h-84s-27.66,39.211-82,43H1461s-92.63-4.852-102-104V525h-75Z" transform="translate(-1124)"/>
    <path class="cls-1" d="M1385,460h-86s32.6-99.11,158-117h390s145.33,28.631,159,172V623h-75V513s-11.72-84.709-98-94H1461S1416.81,419,1385,460Z" transform="translate(-1124)"/>
    <path class="cls-1" d="M1538,811h2l95,60v40l-95,60h-2l-22-20V831Z" transform="translate(-1124)"/>
    <rect class="cls-2" x="514" y="872" width="16" height="38"/>
    <path class="cls-1" d="M1657,871v40l95,60h2l21-19V831l-21-19h-3Z" transform="translate(-1124)"/>
    <path class="cls-1" d="M1463,324h364V257s-166.46-75.269-364,0v67Z" transform="translate(-1124)"/>
    <path class="cls-1" d="M1301,184v-3L1644,55h3l343,126v3l-33,12v65h-14V201l-106,40h-3s-169.73-76.865-376,0h-3Z" transform="translate(-1124)"/>
    <ellipse class="cls-2" cx="393.5" cy="575" rx="46.5" ry="47"/>
    <ellipse id="Ellipse_1_copy" data-name="Ellipse 1 copy" class="cls-2" cx="651.5" cy="572" rx="46.5" ry="47"/>
    <circle id="Ellipse_1_copy_2" data-name="Ellipse 1 copy 2" class="cls-2" cx="826.315" cy="274.156" r="25.875"/>
    <text id="ScholarAI" class="cls-3" x="2189.582" y="672.849">ScholarAI</text>
  </g>
</svg>
