<svg xmlns="http://www.w3.org/2000/svg" width="1024" height="1024" viewBox="0 0 1024 1024">
  <defs>
    <style>
      .cls-1, .cls-2 {
        fill: #4815e7;
      }

      .cls-1 {
        fill-rule: evenodd;
      }
    </style>
  </defs>
  <g id="Artboard_1" data-name="Artboard 1">
    <path class="cls-1" d="M160,525V630s5.075,143.327,167,174H714s109.915-10.653,153-117H783s-27.661,39.211-82,43H337s-92.634-4.852-102-104V525H160Z"/>
    <path class="cls-1" d="M261,460H175s32.6-99.11,158-117H723s145.325,28.631,159,172V623H807V513s-11.724-84.709-98-94H337S292.81,419,261,460Z"/>
    <path class="cls-1" d="M414,811h2l95,60v40l-95,60h-2l-22-20V831Z"/>
    <rect class="cls-2" x="514" y="872" width="16" height="38"/>
    <path class="cls-1" d="M533,871v40l95,60h2l21-19V831l-21-19h-3Z"/>
    <path class="cls-1" d="M339,324H703V257s-166.457-75.269-364,0v67Z"/>
    <path class="cls-1" d="M177,184v-3L520,55h3L866,181v3l-33,12v65H819V201L713,241h-3s-169.735-76.865-376,0h-3Z"/>
    <ellipse class="cls-2" cx="393.5" cy="575" rx="46.5" ry="47"/>
    <ellipse id="Ellipse_1_copy" data-name="Ellipse 1 copy" class="cls-2" cx="651.5" cy="572" rx="46.5" ry="47"/>
    <circle id="Ellipse_1_copy_2" data-name="Ellipse 1 copy 2" class="cls-2" cx="826.313" cy="274.156" r="25.875"/>
  </g>
</svg>
