<svg width="24" height="24" viewBox="0 0 24 24" fill="none" xmlns="http://www.w3.org/2000/svg">
<g clip-path="url(#clip0_6702_39)">
<path d="M3.75548 18.1921C4.12822 18.4757 4.17702 18.6817 3.98233 19.1509C3.57503 20.1328 3.10518 21.2965 2.70864 22.4865C2.60298 22.8034 2.59541 23.4224 2.82396 23.6709C3.01098 23.8744 3.32826 23.9023 3.63508 23.9292C3.7258 23.9371 3.81144 23.9447 3.89211 23.9565C3.90515 23.9585 3.91829 23.9594 3.93144 23.9594C4.04304 23.9475 4.15051 23.9064 4.24494 23.8394L4.28477 23.8161C4.62104 23.623 4.95764 23.4305 5.29456 23.2385C6.25626 22.6895 7.25061 22.1214 8.21888 21.542L8.22794 21.5367C9.39309 20.8399 10.4926 20.1814 11.8429 20.4709C11.8993 20.4808 11.9564 20.4834 12.0134 20.4782C12.0314 20.4772 12.0497 20.4763 12.0675 20.4761C15.2753 20.4437 17.7471 19.7042 19.8465 18.1492C23.0618 15.7672 24.5055 12.3584 23.8074 8.79691C23.1611 5.4994 21.8867 3.44762 19.6755 2.14443C17.4275 0.819795 14.8942 0.0586598 12.5425 0.00125885C12.5416 0.00142402 12.5407 0.00142402 12.5399 0.00125885C9.63717 0.0139778 7.21207 0.545098 4.90827 1.67309C2.11551 3.04021 0.58419 5.00434 0.226978 7.67763C0.0729969 8.76511 0.05463 9.87093 0.172402 10.964C0.559091 14.2878 1.73121 16.6521 3.75548 18.1921ZM4.73868 20.8796C4.93287 20.1103 5.11611 19.3837 5.34465 18.6876C5.70316 17.5965 5.17406 16.9834 4.67345 16.5712C3.91202 15.9446 3.14183 15.2232 2.66522 14.1977C1.43435 11.5494 1.26684 9.06852 2.15275 6.61333C2.63325 5.28183 3.60869 4.29321 5.22246 3.50198C7.44988 2.40993 9.66685 1.86394 11.8587 1.86394C14.0409 1.87474 16.1957 2.40513 18.1778 3.41924C20.4663 4.56428 21.7354 6.45279 22.1719 9.36265C22.5304 11.7506 21.9346 13.7395 20.2979 15.6215C18.8404 17.2974 16.8753 18.2837 14.1137 18.7251C12.7218 18.9476 11.0754 19.1319 9.41848 18.812C9.21164 18.7729 8.98031 18.9168 8.79319 19.0332C7.67156 19.7333 6.56049 20.4354 5.38429 21.1788L4.52397 21.7223C4.59906 21.433 4.66977 21.1528 4.73868 20.8797V20.8796Z" fill="#FF0000"/>
<path d="M7.59676 11.8658H7.6106C7.76689 11.8652 7.92149 11.8299 8.06536 11.7621C8.20923 11.6942 8.33945 11.5953 8.44841 11.4708C8.54201 11.3635 8.61507 11.2362 8.66318 11.0968C8.71129 10.9573 8.73346 10.8084 8.72834 10.6591C8.7107 10.3549 8.59246 10.0687 8.39633 9.85535C8.2002 9.64204 7.94002 9.51668 7.66577 9.50346C7.52007 9.50447 7.376 9.53768 7.24191 9.60099C7.10781 9.6643 6.98638 9.75647 6.88462 9.8723C6.7737 9.99003 6.68481 10.1309 6.62308 10.2869C6.56135 10.4429 6.52799 10.611 6.52492 10.7814C6.5241 10.9198 6.54818 11.0571 6.59576 11.185C6.64333 11.313 6.71344 11.429 6.80197 11.5266C7.01605 11.752 7.30186 11.874 7.59676 11.8658Z" fill="black"/>
<path d="M12.3132 12.1726H12.3232C12.5934 12.1702 12.8519 12.0493 13.0423 11.8363C13.2425 11.6201 13.358 11.3248 13.3634 11.0146C13.3657 10.705 13.2114 10.3388 12.9606 10.0595C12.7906 9.84766 12.5535 9.71694 12.2988 9.69457H12.2956C11.7812 9.69789 11.2691 10.3243 11.2616 10.9591C11.259 11.1178 11.2849 11.2756 11.3378 11.423C11.3906 11.5705 11.4692 11.7049 11.5693 11.8183C11.666 11.9291 11.7815 12.0175 11.9092 12.0783C12.037 12.1391 12.1742 12.1712 12.3132 12.1726Z" fill="black"/>
<path d="M16.803 12.0443H16.8096C17.0658 12.0333 17.3097 11.9188 17.4952 11.7222C17.6808 11.5256 17.7954 11.2605 17.8174 10.9767C17.8104 10.6963 17.7044 10.4301 17.5223 10.2357C17.2773 9.93265 16.9373 9.74495 16.572 9.71099C16.4792 9.70896 16.3872 9.72797 16.3014 9.76672C16.2155 9.80547 16.1378 9.86317 16.0726 9.9364C15.9702 10.0534 15.8896 10.1919 15.8358 10.3438C15.7821 10.4957 15.756 10.658 15.7592 10.8212C15.753 11.1367 15.8591 11.4421 16.0546 11.6711C16.25 11.9001 16.519 12.0343 16.803 12.0443Z" fill="black"/>
</g>
<defs>
<clipPath id="clip0_6702_39">
<rect width="24" height="24" fill="white"/>
</clipPath>
</defs>
</svg>
